<svg xmlns="http://www.w3.org/2000/svg" fill="none" viewBox="0 0 64 61">
  <path fill="#1C1C1C" stroke="#F8F8F8" stroke-width="2" d="M7.866 9.063C12.858 3.566 20.78.466 32.418 1.075l.914.056c9.378.655 16.727 3.733 21.78 8.719C60.331 15.002 63 22.095 63 30.362c0 6.788-3.354 14.185-8.806 19.87C48.731 55.93 41.074 60 32.366 60c-10.871 0-18.753-3.2-23.91-8.594C3.305 46.022 1 38.586 1 30.362c0-8.177 1.902-15.834 6.866-21.3Z"/>
  <path fill="#F8F8F8" fill-rule="evenodd" d="m18.246 36.585.107.01c2.302.219 3.43-.552 4.133-1.476.834-1.097 1.28-2.72 1.495-4.425.074-.586-.299-1.877-1.567-3.138-1.193-1.186-2.788-1.927-4.412-1.818l-.179.012-.18-.016c-2.719-.249-5.279 2.108-5.325 5.175.202 2.482.872 3.77 1.628 4.473.772.718 2.034 1.203 4.194 1.203h.106ZM10 30.995c0-4.394 3.65-8.002 7.85-7.618 4.837-.325 8.834 4.408 8.43 7.618-.465 3.681-2.058 8.533-8.14 7.958-4.925 0-7.707-2.206-8.14-7.958Zm43.596-1.391.036-.204c.217-1.248-.274-2.199-1.447-3.097-1.24-.95-2.943-1.553-4.161-1.829-1.464-.332-2.618.125-3.581 1.12-1 1.032-1.761 2.645-2.085 4.418.026 1.824.408 2.993 1.065 3.745.646.738 1.929 1.495 4.679 1.641 2.567-.246 3.804-.985 4.443-1.722.66-.764 1.051-1.949 1.051-3.863v-.21Zm-5.446 8.165c-6.402-.283-8.111-3.562-8.111-7.958.725-4.423 3.795-8.712 8.487-7.646 2.772.629 8.227 2.81 7.387 7.647 0 4.395-1.767 7.437-7.763 7.957Z" clip-rule="evenodd"/>
  <path fill="#F8F8F8" d="M27.043 35.803a.747.747 0 0 1 .307-.359.934.934 0 0 1 .491-.137h5.44l4.855-.306a.897.897 0 0 1 .57.16c.16.115.263.279.288.457a.633.633 0 0 1-.154.502.837.837 0 0 1-.51.273l-1.854.27a54.503 54.503 0 0 1-3.195.305c-1.157.068-2.922.01-3.18 0a.561.561 0 0 1-.065-.005l-2.282-.205a.897.897 0 0 1-.502-.203.692.692 0 0 1-.245-.43.639.639 0 0 1 .036-.322Z"/>
  <path fill="#F8F8F8" fill-rule="evenodd" d="M33.285 35.358h-5.442c-.2 0-.392.066-.537.186a.638.638 0 0 0-.24.455.624.624 0 0 0 .185.473c.13.132.312.216.51.235l2.283.207.06.003c.26.009 2.021.068 3.175 0 1.06-.07 2.117-.171 3.168-.303l.02-.001 1.852-.27a.779.779 0 0 0 .481-.251.588.588 0 0 0 .146-.47.633.633 0 0 0-.27-.425.833.833 0 0 0-.536-.145l-4.855.306Zm-5.442-.051a.94.94 0 0 0-.43.1.786.786 0 0 0-.31.278.648.648 0 0 0 .033.744.8.8 0 0 0 .266.225.927.927 0 0 0 .353.104l2.282.206.065.003c.258.01 2.023.07 3.181 0 1.061-.07 2.12-.171 3.172-.303l.02-.002 1.854-.27a.837.837 0 0 0 .511-.272.633.633 0 0 0 .154-.502.681.681 0 0 0-.287-.456.896.896 0 0 0-.571-.16l-4.854.305h-5.439Z" clip-rule="evenodd"/>
</svg>
